<svg width="634" height="434" viewBox="0 0 634 434" fill="none" xmlns="http://www.w3.org/2000/svg">
<g clip-path="url(#clip0_4_265)">
<path d="M34.6258 395.244C21.1157 409.681 18.3115 433.359 18.3115 433.359C18.3115 433.359 37.4116 433.631 50.9218 419.194C64.4319 404.757 67.2361 381.079 67.2361 381.079C67.2361 381.079 48.136 380.807 34.6258 395.244Z" fill="#F2F2F2"/>
<path d="M40.8687 400.988C35.1138 422.037 18.5687 434 18.5687 434C18.5687 434 11.354 411.835 17.1089 390.786C22.8637 369.737 39.4088 357.775 39.4088 357.775C39.4088 357.775 46.6235 379.939 40.8687 400.988Z" fill="#F2F2F2"/>
<path d="M181.888 89.567C178.831 84.6031 174.51 80.0103 174.237 73.885C173.986 68.267 177.329 62.6892 175.919 57.3144C174.835 53.1818 171.259 50.6883 167.765 49.3678C161.074 46.876 153.915 47.2214 147.398 50.3504L147.751 50.0378C143.774 48.2621 139.124 50.0952 135.994 53.4906C132.864 56.8858 131.004 61.5921 129.561 66.3083C128.118 71.0245 126.999 75.9132 124.994 80.3346C122.988 84.7561 119.918 88.7771 115.867 90.3051C117.223 93.6954 121.463 94.8585 123.949 92.5224C124.584 91.8759 125.155 91.1361 125.65 90.319C127.308 87.7918 128.967 85.2646 130.625 82.7375C132.332 86.5409 129.782 91.7903 131.88 95.3114C132.961 97.1272 134.937 97.8168 136.772 98.3114C151.111 102.146 165.986 101.454 180.059 96.2993C181.19 95.8816 182.438 95.3063 182.907 94.0233C183.449 92.5422 182.691 90.8723 181.888 89.567Z" fill="#2F2E41"/>
<path d="M222.546 108.938C222.456 109.432 222.398 109.933 222.371 110.438L191.03 133.097L183.412 127.601L175.291 140.924L188.022 152.296C189.051 153.215 190.29 153.691 191.552 153.652C192.815 153.614 194.034 153.063 195.025 152.083L227.343 120.131C228.802 120.808 230.39 120.912 231.897 120.429C233.404 119.947 234.758 118.901 235.779 117.431C236.8 115.961 237.44 114.136 237.613 112.199C237.786 110.262 237.485 108.305 236.749 106.588C236.013 104.871 234.877 103.476 233.493 102.587C232.109 101.699 230.541 101.36 229 101.615C227.458 101.87 226.014 102.707 224.862 104.016C223.709 105.324 222.901 107.041 222.546 108.938Z" fill="#FFB7B7"/>
<path d="M189.982 134.17L179.853 150.622C179.564 151.09 179.199 151.475 178.782 151.75C178.364 152.025 177.904 152.185 177.433 152.217C176.962 152.249 176.491 152.154 176.052 151.938C175.613 151.721 175.216 151.389 174.889 150.963L163.421 136.04C161.516 134.18 160.277 131.448 159.978 128.444C159.678 125.441 160.342 122.411 161.823 120.02C163.304 117.628 165.482 116.071 167.878 115.691C170.274 115.31 172.693 116.136 174.604 117.988L188.986 128.066C189.398 128.355 189.755 128.751 190.033 129.229C190.312 129.706 190.505 130.253 190.599 130.832C190.694 131.411 190.688 132.009 190.581 132.585C190.475 133.161 190.27 133.702 189.982 134.17H189.982Z" fill="#6C63FF"/>
<path d="M176.041 420.831L184.986 420.83L189.241 377.594L176.04 377.595L176.041 420.831Z" fill="#FFB7B7"/>
<path d="M173.76 417.171L191.375 417.17H191.376C194.353 417.17 197.208 418.652 199.313 421.291C201.419 423.929 202.601 427.507 202.602 431.238V431.695L173.76 431.696L173.76 417.171Z" fill="#2F2E41"/>
<path d="M114.756 420.831L123.701 420.83L127.956 377.594L114.754 377.595L114.756 420.831Z" fill="#FFB7B7"/>
<path d="M112.474 417.171L130.089 417.17H130.09C133.067 417.17 135.923 418.652 138.028 421.291C140.133 423.929 141.316 427.507 141.316 431.238V431.695L112.475 431.696L112.474 417.171Z" fill="#2F2E41"/>
<path d="M170.67 83.4548C171.601 72.8196 165.477 63.2517 156.99 62.0842C148.504 60.9168 140.869 68.5919 139.938 79.2271C139.006 89.8623 145.13 99.4303 153.617 100.598C162.103 101.765 169.738 94.0901 170.67 83.4548Z" fill="#FFB7B7"/>
<path d="M164.349 110.382L173.456 116.036C173.456 116.036 183.631 138.197 177.794 159.226C174.96 169.436 182.94 201.982 182.94 201.982C182.94 201.982 195.304 349.404 195.343 394.904C179.983 397.863 165.391 401.521 164.661 392.377C163.932 383.234 155.945 275.128 155.945 275.128C155.945 275.128 144.962 395.12 136.207 396.949C127.452 398.778 109.942 396.035 109.942 396.035C109.942 396.035 123.843 220.269 133.328 209.297L134.787 200.154L134.748 118.082L145.676 111.546L164.349 110.382Z" fill="#2F2E41"/>
<path d="M131.77 234.977C132.778 234.294 133.654 233.342 134.336 232.188C135.019 231.035 135.491 229.708 135.72 228.301C135.949 226.894 135.929 225.441 135.661 224.045C135.394 222.649 134.885 221.343 134.171 220.22L144.763 131.748L130.925 130.916L122.669 219.021C121.243 220.649 120.343 222.876 120.139 225.28C119.935 227.684 120.443 230.098 121.564 232.065C122.686 234.032 124.345 235.414 126.226 235.951C128.107 236.488 130.079 236.141 131.77 234.977Z" fill="#FFB7B7"/>
<path d="M144.462 153.916L127.913 152.606C127.442 152.569 126.983 152.405 126.568 152.126C126.152 151.846 125.789 151.457 125.504 150.986C125.219 150.515 125.018 149.973 124.916 149.396C124.813 148.819 124.811 148.22 124.909 147.642L128.357 127.381C128.523 124.362 129.636 121.549 131.454 119.559C133.272 117.568 135.646 116.562 138.055 116.761C140.464 116.961 142.712 118.349 144.305 120.623C145.898 122.896 146.707 125.868 146.554 128.887L147.94 149.464C147.98 150.054 147.918 150.647 147.758 151.203C147.598 151.759 147.345 152.266 147.015 152.688C146.685 153.111 146.286 153.439 145.845 153.651C145.405 153.863 144.933 153.953 144.462 153.916L144.462 153.916Z" fill="#6C63FF"/>
<path d="M601.829 70.0223H235.871C233.2 70.0223 230.638 71.3523 228.749 73.7196C226.86 76.0869 225.798 79.2976 225.798 82.6454V338.178C225.798 341.526 226.86 344.737 228.749 347.104C230.638 349.471 233.2 350.801 235.871 350.801H601.829C604.501 350.801 607.063 349.471 608.952 347.104C610.841 344.737 611.902 341.526 611.902 338.178V82.6454C611.902 79.2976 610.841 76.0869 608.952 73.7196C607.063 71.3523 604.501 70.0223 601.829 70.0223Z" fill="#3F3D56"/>
<path d="M598.397 92.3308H239.303V346.186H598.397V92.3308Z" fill="white"/>
<path d="M418.543 85.4074C420.577 85.4074 422.226 83.341 422.226 80.7919C422.226 78.2428 420.577 76.1764 418.543 76.1764C416.509 76.1764 414.86 78.2428 414.86 80.7919C414.86 83.341 416.509 85.4074 418.543 85.4074Z" fill="white"/>
<path d="M495.702 346.186H239.303V92.3307L495.702 346.186Z" fill="#F2F2F2"/>
<path d="M621.984 341.57H586.939V338.406C586.939 338.239 586.886 338.08 586.792 337.962C586.699 337.844 586.571 337.778 586.438 337.778H574.423C574.357 337.778 574.292 337.795 574.231 337.826C574.17 337.858 574.115 337.904 574.069 337.962C574.022 338.02 573.985 338.089 573.96 338.166C573.935 338.242 573.922 338.323 573.922 338.406V341.57H566.413V338.406C566.413 338.323 566.4 338.242 566.374 338.166C566.349 338.089 566.312 338.02 566.266 337.962C566.219 337.904 566.164 337.858 566.104 337.826C566.043 337.795 565.978 337.778 565.912 337.778H553.896C553.831 337.778 553.766 337.795 553.705 337.826C553.644 337.858 553.589 337.904 553.542 337.962C553.496 338.02 553.459 338.089 553.434 338.166C553.409 338.242 553.396 338.323 553.396 338.406V341.57H545.886V338.406C545.886 338.323 545.873 338.242 545.848 338.166C545.823 338.089 545.786 338.02 545.739 337.962C545.693 337.904 545.638 337.858 545.577 337.826C545.516 337.795 545.451 337.778 545.385 337.778H533.37C533.304 337.778 533.239 337.795 533.178 337.826C533.117 337.858 533.062 337.904 533.016 337.962C532.969 338.02 532.932 338.089 532.907 338.166C532.882 338.242 532.869 338.323 532.869 338.406V341.57H525.359V338.406C525.359 338.323 525.347 338.242 525.321 338.166C525.296 338.089 525.259 338.02 525.213 337.962C525.166 337.904 525.111 337.858 525.05 337.826C524.99 337.795 524.925 337.778 524.859 337.778H512.843C512.778 337.778 512.712 337.795 512.652 337.826C512.591 337.858 512.536 337.904 512.489 337.962C512.443 338.02 512.406 338.089 512.381 338.166C512.356 338.242 512.343 338.323 512.343 338.406V341.57H504.833V338.406C504.833 338.323 504.82 338.242 504.795 338.166C504.77 338.089 504.733 338.02 504.686 337.962C504.64 337.904 504.585 337.858 504.524 337.826C504.463 337.795 504.398 337.778 504.332 337.778H492.317C492.251 337.778 492.186 337.795 492.125 337.826C492.064 337.858 492.009 337.904 491.963 337.962C491.916 338.02 491.879 338.089 491.854 338.166C491.829 338.242 491.816 338.323 491.816 338.406V341.57H484.306V338.406C484.306 338.323 484.293 338.242 484.268 338.166C484.243 338.089 484.206 338.02 484.16 337.962C484.113 337.904 484.058 337.858 483.997 337.826C483.937 337.795 483.872 337.778 483.806 337.778H471.79C471.724 337.778 471.659 337.795 471.599 337.826C471.538 337.858 471.483 337.904 471.436 337.962C471.39 338.02 471.353 338.089 471.328 338.166C471.303 338.242 471.29 338.323 471.29 338.406V341.57H463.78V338.406C463.78 338.323 463.767 338.242 463.742 338.166C463.717 338.089 463.68 338.02 463.633 337.962C463.587 337.904 463.532 337.858 463.471 337.826C463.41 337.795 463.345 337.778 463.279 337.778H369.158C369.092 337.778 369.027 337.795 368.966 337.826C368.905 337.858 368.85 337.904 368.804 337.962C368.757 338.02 368.72 338.089 368.695 338.166C368.67 338.242 368.657 338.323 368.657 338.406V341.57H361.147V338.406C361.147 338.323 361.134 338.242 361.109 338.166C361.084 338.089 361.047 338.02 361.001 337.962C360.954 337.904 360.899 337.858 360.838 337.826C360.777 337.795 360.712 337.778 360.647 337.778H348.631C348.565 337.778 348.5 337.795 348.439 337.826C348.379 337.858 348.324 337.904 348.277 337.962C348.231 338.02 348.194 338.089 348.169 338.166C348.143 338.242 348.13 338.323 348.13 338.406V341.57H340.621V338.406C340.621 338.323 340.608 338.242 340.583 338.166C340.557 338.089 340.521 338.02 340.474 337.962C340.428 337.904 340.372 337.858 340.312 337.826C340.251 337.795 340.186 337.778 340.12 337.778H328.104C328.039 337.778 327.974 337.795 327.913 337.826C327.852 337.858 327.797 337.904 327.75 337.962C327.704 338.02 327.667 338.089 327.642 338.166C327.617 338.242 327.604 338.323 327.604 338.406V341.57H320.094V338.406C320.094 338.323 320.081 338.242 320.056 338.166C320.031 338.089 319.994 338.02 319.947 337.962C319.901 337.904 319.846 337.858 319.785 337.826C319.724 337.795 319.659 337.778 319.593 337.778H307.578C307.512 337.778 307.447 337.795 307.386 337.826C307.326 337.858 307.27 337.904 307.224 337.962C307.177 338.02 307.141 338.089 307.115 338.166C307.09 338.242 307.077 338.323 307.077 338.406V341.57H299.568V338.406C299.568 338.323 299.555 338.242 299.53 338.166C299.504 338.089 299.467 338.02 299.421 337.962C299.374 337.904 299.319 337.858 299.259 337.826C299.198 337.795 299.133 337.778 299.067 337.778H287.051C286.986 337.778 286.921 337.795 286.86 337.826C286.799 337.858 286.744 337.904 286.697 337.962C286.651 338.02 286.614 338.089 286.589 338.166C286.564 338.242 286.551 338.323 286.551 338.406V341.57H279.041V338.406C279.041 338.323 279.028 338.242 279.003 338.166C278.978 338.089 278.941 338.02 278.894 337.962C278.848 337.904 278.793 337.858 278.732 337.826C278.671 337.795 278.606 337.778 278.54 337.778H266.525C266.392 337.778 266.265 337.844 266.171 337.962C266.077 338.08 266.024 338.239 266.024 338.406V341.57H258.515V338.406C258.515 338.323 258.502 338.242 258.476 338.166C258.451 338.089 258.414 338.02 258.368 337.962C258.321 337.904 258.266 337.858 258.206 337.826C258.145 337.795 258.08 337.778 258.014 337.778H245.998C245.866 337.778 245.738 337.844 245.644 337.962C245.55 338.08 245.498 338.239 245.498 338.406V341.57H222.468C220.89 341.57 219.328 341.959 217.87 342.716C216.412 343.473 215.087 344.582 213.972 345.98C212.856 347.379 211.971 349.039 211.367 350.865C210.763 352.692 210.452 354.65 210.452 356.628V363.437C210.452 367.43 211.718 371.26 213.972 374.084C216.225 376.908 219.281 378.494 222.468 378.494H621.984C625.171 378.494 628.227 376.908 630.481 374.084C632.734 371.26 634 367.43 634 363.437V356.628C634 354.65 633.689 352.692 633.085 350.865C632.482 349.039 631.596 347.379 630.481 345.98C629.365 344.582 628.04 343.473 626.583 342.716C625.125 341.959 623.562 341.57 621.984 341.57Z" fill="#3F3D56"/>
<path d="M425.757 312.899C425.637 313.256 425.503 313.605 425.353 313.944C424.57 315.756 423.463 317.317 422.119 318.504C420.528 319.908 418.659 320.737 416.717 320.901C414.776 321.064 412.836 320.557 411.108 319.433C409.381 318.31 407.933 316.613 406.923 314.529C405.912 312.445 405.378 310.053 405.378 307.614V305.465H406.833C412.488 310.045 419.029 312.615 425.757 312.899Z" fill="#3F3D56"/>
<path d="M446.525 306.094V307.614C446.525 310.573 445.74 313.448 444.291 315.785C442.843 318.122 440.814 319.787 438.526 320.518C436.238 321.249 433.821 321.004 431.657 319.821C429.492 318.638 427.704 316.586 426.575 313.987C426.419 313.639 426.278 313.282 426.153 312.915C426.464 312.926 426.77 312.931 427.081 312.931C433.941 312.941 440.67 310.575 446.525 306.094Z" fill="#3F3D56"/>
<path d="M460.84 145.368C460.521 145.31 460.198 145.272 459.874 145.246C463.549 155.86 463.804 167.845 460.585 178.689C460.908 178.641 461.227 178.577 461.547 178.502C464.663 177.746 467.464 175.628 469.451 172.525C471.438 169.423 472.482 165.537 472.398 161.56C472.313 157.583 471.105 153.773 468.988 150.808C466.872 147.843 463.984 145.916 460.84 145.368Z" fill="#3F3D56"/>
<path d="M394.288 145.246C393.964 145.273 393.641 145.31 393.322 145.368C390.178 145.916 387.29 147.843 385.174 150.808C383.057 153.773 381.849 157.583 381.765 161.56C381.68 165.537 382.724 169.423 384.711 172.525C386.698 175.627 389.499 177.746 392.616 178.502C392.935 178.577 393.254 178.641 393.577 178.689C390.358 167.845 390.613 155.86 394.288 145.246Z" fill="#3F3D56"/>
<path d="M460.84 145.368C457.334 134.874 450.841 126.387 442.621 121.557C434.402 116.727 425.043 115.898 416.363 119.232C407.683 122.565 400.302 129.823 395.653 139.596C391.005 149.368 389.421 160.957 391.209 172.111C392.997 183.265 398.03 193.188 405.33 199.951C412.629 206.715 421.675 209.837 430.708 208.711C439.742 207.584 448.119 202.29 454.212 193.856C460.305 185.422 463.679 174.451 463.678 163.074C463.677 156.995 462.712 150.977 460.84 145.368ZM460.585 178.689C457.472 189.175 451.34 197.822 443.395 202.926C435.45 208.031 426.269 209.224 417.658 206.271C409.046 203.318 401.629 196.432 396.865 186.969C392.102 177.506 390.337 166.152 391.919 155.14C393.5 144.129 398.313 134.258 405.411 127.471C412.508 120.683 421.376 117.471 430.268 118.466C439.161 119.461 447.434 124.591 453.46 132.847C459.486 141.102 462.827 151.886 462.827 163.074C462.826 168.405 462.067 173.692 460.585 178.689Z" fill="#3F3D56"/>
<path d="M445.805 152.675H408.357C406.382 152.675 404.487 153.658 403.091 155.408C401.694 157.158 400.91 159.532 400.91 162.007C400.91 164.483 401.694 166.856 403.091 168.607C404.487 170.357 406.382 171.34 408.357 171.34H445.805C447.78 171.34 449.675 170.357 451.071 168.607C452.468 166.856 453.253 164.483 453.253 162.007C453.253 159.532 452.468 157.158 451.071 155.408C449.675 153.658 447.78 152.675 445.805 152.675Z" fill="#3F3D56"/>
<path d="M460.585 242.77C460.448 242.456 460.308 242.146 460.163 241.842C460.159 241.832 460.155 241.826 460.151 241.816C456.802 234.633 452.021 228.664 446.276 224.496C440.531 220.328 434.02 218.103 427.382 218.04C420.744 217.977 414.207 220.079 408.413 224.138C402.619 228.197 397.766 234.075 394.332 241.194C390.897 248.313 388.999 256.429 388.823 264.745C388.647 273.061 390.2 281.291 393.328 288.628C396.457 295.966 401.054 302.157 406.669 306.595C412.283 311.034 418.722 313.566 425.353 313.944C425.757 313.971 426.166 313.987 426.575 313.987C426.745 313.998 426.911 313.998 427.081 313.998C433.922 314.01 440.64 311.709 446.525 307.337C452.917 302.596 458.08 295.642 461.393 287.311C461.397 287.301 461.402 287.295 461.406 287.285C461.534 286.965 461.657 286.639 461.781 286.309C464.34 279.449 465.566 271.927 465.358 264.359C465.15 256.792 463.515 249.393 460.585 242.77H460.585ZM460.951 286.016C460.827 286.346 460.7 286.671 460.568 286.991C457.402 294.878 452.537 301.495 446.525 306.094C440.67 310.575 433.941 312.941 427.081 312.931C426.77 312.931 426.464 312.926 426.153 312.915C426.021 312.915 425.889 312.91 425.757 312.899C419.26 312.615 412.934 310.215 407.401 305.936C401.868 301.658 397.319 295.648 394.202 288.498C391.085 281.347 389.508 273.303 389.624 265.157C389.741 257.011 391.548 249.043 394.867 242.038C398.187 235.032 402.905 229.23 408.557 225.203C414.209 221.176 420.6 219.063 427.101 219.07C433.602 219.078 439.99 221.207 445.636 225.248C451.282 229.288 455.991 235.101 459.3 242.114C459.304 242.125 459.308 242.13 459.312 242.141C459.461 242.445 459.606 242.754 459.742 243.064C462.663 249.583 464.296 256.884 464.506 264.356C464.717 271.828 463.497 279.254 460.951 286.016Z" fill="#3F3D56"/>
<path d="M456.517 244.189C455.771 243.523 454.879 243.163 453.963 243.16H437.226C436.06 243.16 434.942 243.74 434.118 244.773C433.293 245.806 432.83 247.207 432.83 248.669C432.83 250.13 433.293 251.531 434.118 252.564C434.942 253.597 436.06 254.178 437.226 254.178H453.963C454.262 254.179 454.56 254.141 454.853 254.066C455.144 253.987 455.429 253.874 455.704 253.73C456.419 253.343 457.04 252.725 457.502 251.939C457.964 251.154 458.252 250.228 458.334 249.257C458.417 248.286 458.292 247.305 457.973 246.414C457.653 245.524 457.151 244.756 456.517 244.189L456.517 244.189Z" fill="#3F3D56"/>
<path d="M438.34 251.465C439.573 251.465 440.572 250.213 440.572 248.668C440.572 247.124 439.573 245.871 438.34 245.871C437.108 245.871 436.109 247.124 436.109 248.668C436.109 250.213 437.108 251.465 438.34 251.465Z" fill="#F1F1F1"/>
<path d="M445.594 251.465C446.826 251.465 447.826 250.213 447.826 248.668C447.826 247.124 446.826 245.871 445.594 245.871C444.361 245.871 443.362 247.124 443.362 248.668C443.362 250.213 444.361 251.465 445.594 251.465Z" fill="#F1F1F1"/>
<path d="M452.847 251.465C454.08 251.465 455.079 250.213 455.079 248.668C455.079 247.124 454.08 245.871 452.847 245.871C451.614 245.871 450.615 247.124 450.615 248.668C450.615 250.213 451.614 251.465 452.847 251.465Z" fill="#6C63FF"/>
<path d="M536.904 156.489C531.1 160.851 520.759 166.316 510.192 160.699L503.362 157.068L517.05 137.839C506.127 122.746 500.084 103.093 500.101 82.7176C500.117 62.3416 506.192 42.7047 517.14 27.6397C528.088 12.5748 543.122 3.16297 559.309 1.24148C575.495 -0.680004 591.673 5.02671 604.683 17.2477C617.693 29.4688 626.602 47.327 629.671 67.3366C632.74 87.3462 629.749 108.071 621.282 125.466C612.815 142.861 599.479 155.677 583.877 161.413C568.275 167.149 551.528 165.394 536.904 156.489Z" fill="white"/>
<path d="M536.939 157.525C531.362 161.628 520.739 167.299 509.907 161.541L502.14 157.412L516.071 137.841C507.403 125.623 501.814 110.463 500.007 94.2713C498.201 78.0797 500.258 61.5803 505.92 46.851C511.581 32.1218 520.594 19.8213 531.823 11.4987C543.053 3.17609 555.996 -0.796412 569.023 0.0814498C582.05 0.959311 594.578 6.64828 605.031 16.4319C615.483 26.2155 623.391 39.6563 627.76 55.0615C632.128 70.4667 632.762 87.1474 629.58 103.003C626.399 118.858 619.545 133.18 609.881 144.163C600.176 155.26 588.043 162.463 575.043 164.845C562.044 167.226 548.773 164.677 536.939 157.525H536.939ZM613.357 28.378C607.654 20.4947 600.769 14.0964 593.093 9.54849C585.417 5.00059 577.101 2.39221 568.621 1.87231C560.141 1.3524 551.662 2.93117 543.668 6.51845C535.675 10.1057 528.324 15.6312 522.035 22.7793C515.746 29.9275 510.642 38.5582 507.015 48.1787C503.387 57.7991 501.308 68.2207 500.896 78.8484C500.483 89.476 501.745 100.101 504.609 110.118C507.474 120.134 511.885 129.345 517.59 137.225L518.031 137.834L504.584 156.725L510.477 159.858C520.938 165.419 531.289 159.642 536.528 155.705L536.867 155.45L537.222 155.666C550.728 163.89 566.097 165.965 580.691 161.536C595.285 157.106 608.193 146.447 617.199 131.39C626.205 116.333 630.748 97.816 630.046 79.0188C629.345 60.2217 623.444 42.3168 613.357 28.3781L613.357 28.378Z" fill="#6C63FF"/>
<path opacity="0.1" d="M620.662 82.2908C620.661 63.4497 615.031 45.2919 604.881 31.3931C594.73 17.4943 580.795 8.86192 565.82 7.19587C567.572 7.00349 569.345 6.89941 571.137 6.89941C587.086 6.91147 602.378 14.8598 613.653 28.9971C624.927 43.1344 631.26 62.3036 631.26 82.2907C631.26 102.278 624.927 121.447 613.653 135.584C602.378 149.722 587.086 157.67 571.137 157.682C569.347 157.682 567.578 157.577 565.828 157.385C580.802 155.716 594.735 147.083 604.884 133.185C615.032 119.286 620.661 101.13 620.662 82.2908Z" fill="black"/>
<path d="M573.963 67.2567H530.976V72.2594H573.963V67.2567Z" fill="#6C63FF"/>
<path d="M605.899 84.5627H530.976V89.5655H605.899V84.5627Z" fill="#6C63FF"/>
<path d="M605.825 101.869H530.976V106.871H605.825V101.869Z" fill="#6C63FF"/>
<path d="M278.704 432.65H0.729591C0.536091 432.65 0.350516 432.554 0.213692 432.383C0.0768668 432.211 0 431.979 0 431.736C0 431.494 0.0768668 431.261 0.213692 431.09C0.350516 430.918 0.536091 430.822 0.729591 430.822H278.704C278.897 430.822 279.083 430.918 279.22 431.09C279.356 431.261 279.433 431.494 279.433 431.736C279.433 431.979 279.356 432.211 279.22 432.383C279.083 432.554 278.897 432.65 278.704 432.65Z" fill="#CBCBCB"/>
<path d="M171.505 68.748C170.903 65.3236 168.946 62.4863 166.692 60.4084C162.977 56.983 158.42 55.2992 153.816 55.6501C149.212 56.0009 144.852 58.3643 141.494 62.3287C139.619 64.4049 138.266 67.1212 137.603 70.1453C137.286 71.6568 137.269 73.2424 137.554 74.7639C137.838 76.2855 138.414 77.6969 139.233 78.8754L139.542 79.1178C139.262 77.6293 140.185 76.1419 141.287 75.4852C142.433 74.9579 143.63 74.6217 144.846 74.4851C146.687 74.0493 148.431 73.1235 149.961 71.7704C151.491 70.4173 152.771 68.6683 153.716 66.6417C154.416 69.136 155.533 71.4136 156.994 73.3214C158.455 75.2291 160.225 76.7228 162.184 77.7018C164.228 78.7031 169.839 80.08 171.784 78.8087C174.265 77.1873 172.108 72.1725 171.505 68.748Z" fill="#2F2E41"/>
</g>
<defs>
<clipPath id="clip0_4_265">
<rect width="634" height="434" fill="white"/>
</clipPath>
</defs>
</svg>
