<svg width="28" height="28" viewBox="0 0 28 28" fill="none" xmlns="http://www.w3.org/2000/svg">
<path d="M25.4398 11.7151H24.5V11.6667H14V16.3334H20.5935C19.6315 19.05 17.0468 21 14 21C10.1343 21 7.00004 17.8658 7.00004 14C7.00004 10.1343 10.1343 7.00004 14 7.00004C15.7845 7.00004 17.4079 7.67321 18.644 8.77279L21.9439 5.47287C19.8602 3.53096 17.073 2.33337 14 2.33337C7.55712 2.33337 2.33337 7.55712 2.33337 14C2.33337 20.443 7.55712 25.6667 14 25.6667C20.443 25.6667 25.6667 20.443 25.6667 14C25.6667 13.2178 25.5862 12.4542 25.4398 11.7151Z" fill="#FFC107"/>
<path d="M3.29407 11.6502L7.26898 16C8.34452 12.0266 10.9493 9.22115 13.9975 9.22115C15.8479 9.22115 17.5314 10.2628 18.8132 11.9643L22.2352 6.85803C20.0745 3.85313 17.1842 2 13.9975 2C9.3505 2 5.32054 5.91476 3.29407 11.6502Z" fill="#FF3D00"/>
<path d="M14 25.6667C17.0135 25.6667 19.7517 24.5135 21.8219 22.638L18.2111 19.5825C17.0004 20.5033 15.521 21.0012 14 21C10.9655 21 8.38894 19.0651 7.41827 16.3649L3.61377 19.2961C5.5446 23.0744 9.46577 25.6667 14 25.6667Z" fill="#4CAF50"/>
<path d="M25.4398 11.715H24.5V11.6666H14V16.3333H20.5934C20.1333 17.6262 19.3045 18.756 18.2093 19.583L18.2111 19.5819L21.8219 22.6374C21.5664 22.8695 25.6667 19.8333 25.6667 14C25.6667 13.2177 25.5862 12.4541 25.4398 11.715Z" fill="#1976D2"/>
</svg>
